<svg width="22" height="22" fill="none" xmlns="http://www.w3.org/2000/svg"><path fill-rule="evenodd" clip-rule="evenodd" d="M10.53 3.244c-4.025 0-7.287 3.258-7.287 7.277 0 4.018 3.262 7.277 7.287 7.277 2.008 0 3.825-.81 5.143-2.123a7.248 7.248 0 0 0 2.143-5.154c0-4.019-3.261-7.277-7.286-7.277ZM1.833 10.52c0-4.799 3.894-8.688 8.697-8.688 4.802 0 8.696 3.889 8.696 8.688a8.65 8.65 0 0 1-2.077 5.634l2.81 2.808a.705.705 0 1 1-.996.997l-2.813-2.81a8.67 8.67 0 0 1-5.62 2.058c-4.803 0-8.697-3.889-8.697-8.687Z" fill="#A5A5A5"/></svg>