<svg width="20" height="20" fill="none" xmlns="http://www.w3.org/2000/svg"><path d="m18.333 6.801-.944 5.977c-.171 1.178-1.115 1.936-2.316 1.936H6.838c-1.115 0-2.145-.842-2.316-1.936L3.492 5.79l-.257-1.936c-.086-.505-.515-.842-1.115-.842h-.6c-.344 0-.687-.336-.687-.673s.343-.673.686-.673h.6c1.202 0 2.231.841 2.317 2.02l.172 1.347h12.18c.43 0 .859.168 1.116.505.343.336.429.841.429 1.262ZM15.245 18.333a.85.85 0 0 0 .858-.841.85.85 0 0 0-.858-.842.85.85 0 0 0-.858.842.85.85 0 0 0 .858.841ZM6.666 18.333a.85.85 0 0 0 .858-.841.85.85 0 0 0-.858-.842.85.85 0 0 0-.857.842.85.85 0 0 0 .857.841Z" fill="#D9D9D9"/></svg>